# xmcd CD database file
#
# Track frame offsets:
#	150
#	15555
#	32920
#	48152
#	62605
#	78192
#	90832
#	106832
#	121197
#	138380
#
# Disc length: 2074 seconds
#
# Revision: 2
# Processed by: cddbd v1.5.2PL0 Copyright (c) Steve Scherf et al.
# Submitted via: CDex 1.51
#
DISCID=6b08180a
DTITLE=Lee Greenwood - Holdin' A Good Hand
DYEAR=1990
DGENRE=Country
TTITLE0=We've Got It Made
TTITLE1=I Still Look For You
TTITLE2=Enough Already
TTITLE3=Love Lying Next To Me
TTITLE4=Whose Fool I Wanna Be
TTITLE5=Holdin' A Good Hand
TTITLE6=Just Like Me
TTITLE7=Giving Up The Ghost (That's Haunting Me)
TTITLE8=The Moment You Were Mine
TTITLE9=Another Year Of Love
EXTD=YEAR: 1990
EXTT0=
EXTT1=
EXTT2=
EXTT3=
EXTT4=
EXTT5=
EXTT6=
EXTT7=
EXTT8=
EXTT9=
PLAYORDER=
